# xmcd CD database file
#
# Track frame offsets:
#	150
#	13015
#	29917
#	47237
#	62197
#	78957
#	92240
#	102962
#	119337
#	140755
#	155640
#	172765
#	207135
#
# Disc length: 3016 seconds
#
# Revision: 1
# Processed by: cddbd v1.5PL3 Copyright (c) Steve Scherf et al.
# Submitted via: CDex 1.50beta10
#
DISCID=b40bc60d
DTITLE=Mick Clarke and Lou Martin - Happy Home
DYEAR=1997
DGENRE=Blues
TTITLE0=Blue Mood
TTITLE1=L&M Boogie
TTITLE2=Sleeping in the Ground
TTITLE3=Keep on Drinking
TTITLE4=Got to Find My Baby
TTITLE5=Chantalé 
TTITLE6=Hymn to Freedom
TTITLE7=Happy Home
TTITLE8=Love Me or Leave Me
TTITLE9=1st Avenue Swing
TTITLE10=You Don't Know
TTITLE11=As the Years Go Passing By
TTITLE12=One Kind Favour
EXTD=YEAR: 1997
EXTT0=
EXTT1=
EXTT2=
EXTT3=
EXTT4=
EXTT5=
EXTT6=
EXTT7=
EXTT8=
EXTT9=
EXTT10=
EXTT11=
EXTT12=
PLAYORDER=
